<?xml version="1.0" encoding="UTF-8"?>
<svg width="388.59" height="388.59" enable-background="new 0 0 388.586 130.604" version="1.1" viewBox="0 0 388.59 388.59" xml:space="preserve" xmlns="http://www.w3.org/2000/svg" xmlns:cc="http://creativecommons.org/ns#" xmlns:dc="http://purl.org/dc/elements/1.1/" xmlns:rdf="http://www.w3.org/1999/02/22-rdf-syntax-ns#">
<path d="m18.406 196.74c1.856-2.695 3.8-4.595 5.257-4.595 1.193 0 1.767 1.635 2.828 4.816l0.795 2.43c3.667-5.346 5.567-7.246 7.511-7.246 1.149 0 1.856 0.928 1.856 1.9-0.044 1.06-1.06 1.944-1.723 1.944-0.265 0-0.442-0.133-0.663-0.353-0.265-0.353-0.618-0.53-1.016-0.53-0.618 0-1.502 0.751-2.651 2.209-0.928 1.06-1.9 2.253-2.872 3.623l1.414 4.418c0.884 2.783 1.546 4.065 2.253 4.065s1.767-0.884 3.181-2.563l0.751 0.884c-2.032 3.137-4.065 4.771-5.611 4.771-1.105 0-2.077-1.281-2.916-4.065l-1.369-4.285c-3.932 6.185-5.965 8.35-8.085 8.35-1.104 0-2.032-0.884-1.988-2.121 0-1.06 0.928-2.076 1.767-2.076 0.265 0 0.486 0.177 0.707 0.442s0.574 0.442 1.016 0.442c1.281 0 3.358-2.562 6.097-6.671l-1.502-4.595c-0.619-2.165-1.016-2.783-1.458-2.783s-1.281 0.574-2.828 2.518zm30.172 1.06v-2.209h21.074v2.209zm0 8.085v-2.209h21.074v2.209zm35.562-23.727v-2.253h18.512v2.253h-18.51zm25.49-21.074c3.446-0.398 5.876-1.502 6.583-1.502 0.442 0 0.442 0.442 0.221 1.37-1.502 6.053-2.695 11.222-3.932 16.877h0.088c3.8-4.639 7.555-6.627 9.587-6.627 1.944 0 3.137 1.944 3.137 4.86 0 4.86-2.916 10.471-6.804 13.078-2.651 1.811-5.037 2.43-6.671 2.43-1.414 0-2.872-0.795-3.534-1.9-0.663-1.06-0.839-2.651-0.265-5.522 1.237-6.053 2.783-12.724 4.241-19.837 0.398-1.988 0.265-2.121-1.458-2.121l-1.281-0.044 0.08-1.062zm6.72 27.79c2.607-1.547 5.302-6.671 5.302-12.062 0-2.253-0.663-3.181-1.502-3.181-1.546 0-5.213 2.828-8.041 6.848-0.265 0.795-0.53 1.944-0.795 3.446-0.795 4.33 0.928 5.611 2.739 5.611 0.75 0 1.63-0.265 2.3-0.662zm34.19-11.576v9.013h-2.563v-9.013h-9.278v-2.165h9.278v-8.439h2.563v8.439h9.234v2.165h-9.23zm-11.84 13.74v-2.209h21.074v2.209h-21.07zm232.51-39.763v-2.032h-155.64l-20.81 37.952-13.25-25.581-7.953 4.418 0.751 1.325 4.595-2.563 14.17 27.04h0.928l22.13-40.558h155.07zm-144.66 81.749c-0.574 1.856-1.016 3.8-1.546 5.788h-16.524v-1.016c2.474-2.43 4.948-4.948 7.157-7.511 2.739-3.269 5.523-6.892 5.523-10.692 0-3.711-1.944-5.876-5.213-5.876-3.004 0-4.86 2.386-6.008 4.109l-0.972-0.884 2.518-3.579c1.325-1.458 3.402-2.607 5.965-2.607 3.888 0 7.422 2.828 7.422 7.466 0 3.844-1.767 6.45-5.832 10.78l-6.273 6.583h8.262c2.386 0 2.96-0.177 4.286-2.96l1.23 0.4zm22.31 1.73c-2.386 2.96-5.346 4.595-6.45 4.595-0.839 0-1.414-0.663-0.795-3.888l0.883-4.197h-0.088c-1.723 2.43-3.8 4.551-5.699 6.097-1.458 1.193-2.916 1.988-4.109 1.988-1.148 0-2.562-1.458-2.562-4.992 0-4.462 2.076-9.278 5.301-11.973 2.209-1.855 5.434-3.402 8.218-3.402 0.928 0 1.811 0.133 2.739 0.309 0.618 0.133 1.193 0.265 1.679 0.265l0.133 0.177c-0.707 2.739-2.032 8.748-3.049 14.359-0.309 1.546-0.176 1.9 0.089 1.9 0.353 0 1.9-1.016 3.181-2.298l0.54 1.06zm-5.74-6.9c0.486-1.767 1.149-4.948 1.458-6.362-0.619-0.309-1.811-0.618-2.96-0.618s-2.386 0.353-3.137 0.928c-3.004 2.209-4.771 7.422-4.771 11.796 0 1.988 0.574 2.916 1.193 2.916 1.72 0 6.72-5.61 8.22-8.66zm-19.27-66.77c3.446-0.398 5.876-1.502 6.583-1.502 0.442 0 0.442 0.442 0.221 1.37-1.502 6.053-2.695 11.222-3.932 16.877h0.089c3.799-4.639 7.555-6.627 9.587-6.627 1.944 0 3.137 1.944 3.137 4.86 0 4.86-2.916 10.471-6.804 13.078-2.651 1.811-5.036 2.43-6.671 2.43-1.414 0-2.872-0.795-3.534-1.9-0.663-1.06-0.839-2.651-0.265-5.522 1.237-6.053 2.783-12.724 4.241-19.837 0.398-1.988 0.265-2.121-1.458-2.121l-1.281-0.044 0.08-1.062zm6.71 27.79c2.606-1.547 5.302-6.671 5.302-12.062 0-2.253-0.663-3.181-1.502-3.181-1.546 0-5.213 2.828-8.041 6.848-0.265 0.795-0.53 1.944-0.796 3.446-0.795 4.33 0.928 5.611 2.74 5.611 0.76 0 1.64-0.265 2.3-0.662zm23.55-19.484c-0.442 1.414-0.751 2.695-1.016 3.888h-10.736v-0.972c2.474-1.988 7.555-5.832 7.555-9.411 0-2.209-1.326-3.225-2.961-3.225s-2.871 1.237-3.755 2.43l-0.751-0.795 1.414-1.9c1.016-1.281 2.607-1.988 4.286-1.988 2.474 0 4.86 1.679 4.86 4.727 0 2.121-1.369 3.8-4.683 6.716l-2.298 2.032v0.133h4.02c1.723 0 2.209-0.221 3.093-1.988l0.98 0.353zm13.78 12.768v-2.253h18.512v2.253h-18.51zm46.7 1.016v3.181c0 2.96 0.177 3.181 3.756 3.49v1.193h-11.31v-1.193c3.843-0.309 4.02-0.574 4.02-3.49v-3.181h-11.487v-1.237c4.197-6.274 8.703-12.813 13.254-18.821h1.767v17.982h4.241v2.076h-4.24zm-3.54-15.11h-0.088c-2.828 3.932-5.699 8.129-8.616 13.033h8.704zm29.38 18.91c-2.386 2.96-5.346 4.595-6.45 4.595-0.839 0-1.414-0.663-0.796-3.888l0.884-4.197h-0.088c-1.723 2.43-3.8 4.551-5.699 6.097-1.458 1.193-2.916 1.988-4.109 1.988-1.149 0-2.563-1.458-2.563-4.992 0-4.462 2.077-9.278 5.302-11.973 2.209-1.855 5.434-3.402 8.218-3.402 0.928 0 1.811 0.133 2.739 0.309 0.619 0.133 1.193 0.265 1.679 0.265l0.133 0.177c-0.706 2.739-2.032 8.748-3.048 14.359-0.309 1.546-0.177 1.9 0.088 1.9 0.354 0 1.9-1.016 3.181-2.298l0.54 1.06zm-5.74-6.893c0.486-1.767 1.149-4.948 1.458-6.362-0.619-0.309-1.812-0.618-2.961-0.618-1.148 0-2.386 0.353-3.137 0.928-3.004 2.209-4.772 7.422-4.772 11.796 0 1.988 0.574 2.916 1.193 2.916 1.72 0 6.72-5.611 8.22-8.66zm22.04 6.583c-2.739 3.137-6.23 4.904-8.836 4.904-2.828 0-4.728-2.253-4.728-6.495 0-3.667 1.723-7.997 4.551-10.603 1.811-1.59 4.904-3.269 7.069-3.269 1.9 0 3.314 1.104 3.358 2.209 0 0.663-0.442 1.502-1.458 2.032-0.354 0.221-0.663 0.133-0.972-0.265-0.928-1.281-1.944-1.9-3.314-1.9-1.591 0-2.828 1.325-3.667 2.916-1.104 1.988-1.944 4.992-1.944 7.997 0 3.137 1.237 4.771 3.137 4.771 2.253 0 4.948-2.032 6.141-3.269l0.66 0.972zm16.5 12.921h-289.28v2.182h289.28z"/>
<metadata><rdf:RDF><cc:Work><dc:format>image/svg+xml</dc:format><dc:type rdf:resource="http://purl.org/dc/dcmitype/StillImage"/><cc:license rdf:resource="http://creativecommons.org/publicdomain/zero/1.0/"/><dc:publisher><cc:Agent rdf:about="http://openclipart.org/"><dc:title>Openclipart</dc:title></cc:Agent></dc:publisher><dc:date>2013-08-02T22:44:30</dc:date><dc:description>Quadratic Formula</dc:description><dc:source>https://openclipart.org/detail/181454/quadratic-formula-by-jhnri4-181454</dc:source><dc:creator><cc:Agent><dc:title>jhnri4</dc:title></cc:Agent></dc:creator><dc:subject><rdf:Bag><rdf:li>equations</rdf:li><rdf:li>formula</rdf:li><rdf:li>math</rdf:li><rdf:li>mathematics</rdf:li><rdf:li>quadratic</rdf:li></rdf:Bag></dc:subject></cc:Work><cc:License rdf:about="http://creativecommons.org/licenses/publicdomain/"><cc:permits rdf:resource="http://creativecommons.org/ns#Reproduction"/><cc:permits rdf:resource="http://creativecommons.org/ns#Distribution"/><cc:permits rdf:resource="http://creativecommons.org/ns#DerivativeWorks"/></cc:License></rdf:RDF></metadata><g fill="#343434" aria-label="$$x = ...$$"><path d="m40.935 76.235q-2-0.04-3.84-0.36-1.8-0.36-3.08-0.96v-3.4q1.36 0.64 3.2 1.12 1.88 0.48 3.72 0.52v-8.68q-3.64-1.16-5.48-2.8t-1.84-4.68q0-3 1.96-4.8 2-1.8 5.36-2.04v-2.92h2.56v2.88q2 0.04 3.6 0.48 1.6 0.4 3.04 1l-1.08 2.96q-1.28-0.52-2.68-0.88-1.4-0.4-2.88-0.52v8.64q2.56 0.76 4.28 1.64 1.72 0.84 2.56 2.2 0.88 1.32 0.88 3.48 0 2.8-2.04 4.68-2 1.84-5.68 2.28v3.84h-2.56zm0-23q-2 0.16-2.96 1.2-0.92 1-0.92 2.56 0 1.52 0.84 2.44 0.84 0.88 3.04 1.48zm2.56 19.72q2.24-0.28 3.24-1.28 1.04-1.04 1.04-2.64 0-1.52-0.92-2.28-0.88-0.8-3.36-1.44z"/><path d="m64.935 76.235q-2-0.04-3.84-0.36-1.8-0.36-3.08-0.96v-3.4q1.36 0.64 3.2 1.12 1.88 0.48 3.72 0.52v-8.68q-3.64-1.16-5.48-2.8t-1.84-4.68q0-3 1.96-4.8 2-1.8 5.36-2.04v-2.92h2.56v2.88q2 0.04 3.6 0.48 1.6 0.4 3.04 1l-1.08 2.96q-1.28-0.52-2.68-0.88-1.4-0.4-2.88-0.52v8.64q2.56 0.76 4.28 1.64 1.72 0.84 2.56 2.2 0.88 1.32 0.88 3.48 0 2.8-2.04 4.68-2 1.84-5.68 2.28v3.84h-2.56zm0-23q-2 0.16-2.96 1.2-0.92 1-0.92 2.56 0 1.52 0.84 2.44 0.84 0.88 3.04 1.48zm2.56 19.72q2.24-0.28 3.24-1.28 1.04-1.04 1.04-2.64 0-1.52-0.92-2.28-0.88-0.8-3.36-1.44z"/><path d="m80.216 77.595 8.12-10.96-7.72-10.48h4.04l5.76 8.04 5.76-8.04h4.04l-7.76 10.48 8.12 10.96h-4.04l-6.12-8.52-6.16 8.52z"/><path d="m129.22 61.315v-3.2h18.4v3.2zm0 7.6v-3.2h18.4v3.2z"/><path d="m186.42 77.995q-1.04 0-1.76-0.64t-0.72-2.08q0-1.52 0.72-2.12t1.76-0.6 1.76 0.6 0.72 2.12q0 1.44-0.72 2.08t-1.76 0.64z"/><path d="m210.42 77.995q-1.04 0-1.76-0.64t-0.72-2.08q0-1.52 0.72-2.12t1.76-0.6 1.76 0.6 0.72 2.12q0 1.44-0.72 2.08t-1.76 0.64z"/><path d="m234.42 77.995q-1.04 0-1.76-0.64t-0.72-2.08q0-1.52 0.72-2.12t1.76-0.6 1.76 0.6 0.72 2.12q0 1.44-0.72 2.08t-1.76 0.64z"/><path d="m256.94 76.235q-2-0.04-3.84-0.36-1.8-0.36-3.08-0.96v-3.4q1.36 0.64 3.2 1.12 1.88 0.48 3.72 0.52v-8.68q-3.64-1.16-5.48-2.8t-1.84-4.68q0-3 1.96-4.8 2-1.8 5.36-2.04v-2.92h2.56v2.88q2 0.04 3.6 0.48 1.6 0.4 3.04 1l-1.08 2.96q-1.28-0.52-2.68-0.88-1.4-0.4-2.88-0.52v8.64q2.56 0.76 4.28 1.64 1.72 0.84 2.56 2.2 0.88 1.32 0.88 3.48 0 2.8-2.04 4.68-2 1.84-5.68 2.28v3.84h-2.56zm0-23q-2 0.16-2.96 1.2-0.92 1-0.92 2.56 0 1.52 0.84 2.44 0.84 0.88 3.04 1.48zm2.56 19.72q2.24-0.28 3.24-1.28 1.04-1.04 1.04-2.64 0-1.52-0.92-2.28-0.88-0.8-3.36-1.44z"/><path d="m280.94 76.235q-2-0.04-3.84-0.36-1.8-0.36-3.08-0.96v-3.4q1.36 0.64 3.2 1.12 1.88 0.48 3.72 0.52v-8.68q-3.64-1.16-5.48-2.8t-1.84-4.68q0-3 1.96-4.8 2-1.8 5.36-2.04v-2.92h2.56v2.88q2 0.04 3.6 0.48 1.6 0.4 3.04 1l-1.08 2.96q-1.28-0.52-2.68-0.88-1.4-0.4-2.88-0.52v8.64q2.56 0.76 4.28 1.64 1.72 0.84 2.56 2.2 0.88 1.32 0.88 3.48 0 2.8-2.04 4.68-2 1.84-5.68 2.28v3.84h-2.56zm0-23q-2 0.16-2.96 1.2-0.92 1-0.92 2.56 0 1.52 0.84 2.44 0.84 0.88 3.04 1.48zm2.56 19.72q2.24-0.28 3.24-1.28 1.04-1.04 1.04-2.64 0-1.52-0.92-2.28-0.88-0.8-3.36-1.44z"/></g><g fill="#333" aria-label="$\omega$"><path d="m102.14 315.12q-2-0.04-3.84-0.36-1.8-0.36-3.08-0.96v-3.4q1.36 0.64 3.2 1.12 1.88 0.48 3.72 0.52v-8.68q-3.64-1.16-5.48-2.8t-1.84-4.68q0-3 1.96-4.8 2-1.8 5.36-2.04v-2.92h2.56v2.88q2 0.04 3.6 0.48 1.6 0.4 3.04 1l-1.08 2.96q-1.28-0.52-2.68-0.88-1.4-0.4-2.88-0.52v8.64q2.56 0.76 4.28 1.64 1.72 0.84 2.56 2.2 0.88 1.32 0.88 3.48 0 2.8-2.04 4.68-2 1.84-5.68 2.28v3.84h-2.56zm0-23q-2 0.16-2.96 1.2-0.92 1-0.92 2.56 0 1.52 0.84 2.44 0.84 0.88 3.04 1.48zm2.56 19.72q2.24-0.28 3.24-1.28 1.04-1.04 1.04-2.64 0-1.52-0.92-2.28-0.88-0.8-3.36-1.44z"/><path d="m134.82 316.48-10.96-28.56h-3.44l10.96 28.56z"/><path d="m151.66 316.88q-2.8 0-5.04-1.2-2.2-1.24-3.52-3.72-1.28-2.52-1.28-6.28 0-3.72 1.24-6.16 1.28-2.44 3.48-3.64 2.2-1.24 5-1.24t5.04 1.24q2.24 1.2 3.52 3.68 1.32 2.44 1.32 6.24 0 3.72-1.28 6.2-1.28 2.44-3.48 3.68-2.2 1.2-5 1.2zm-0.04-2.92q3.12 0 4.64-2.2 1.52-2.24 1.52-6.04t-1.56-5.96q-1.52-2.2-4.64-2.2t-4.68 2.2q-1.52 2.16-1.52 5.96t1.56 6.04q1.56 2.2 4.68 2.2z"/><path d="m165.62 316.48v-21.44h2.48l0.52 2.36h0.2q0.8-1.6 1.76-2.16 0.96-0.6 2.2-0.6 1.64 0 2.52 0.8 0.92 0.76 1.4 2.28h0.12q0.68-1.48 1.68-2.28 1.04-0.8 2.72-0.8 2.48 0 3.44 1.92 1 1.88 1 5.92v14h-3.2v-13.4q0-2.52-0.36-3.92-0.32-1.4-1.8-1.4-3.04 0-3.04 8v10.72h-3.2v-13.4q0-2.56-0.48-3.92-0.44-1.4-1.92-1.4-1.6 0-2.24 2.16-0.6 2.16-0.6 5.84v10.72z"/><path d="m201.1 316.88q-5.16 0-8.12-2.84-2.96-2.88-2.96-8.2 0-3.52 1.28-6 1.28-2.52 3.56-3.84 2.28-1.36 5.32-1.36 4.2 0 6.6 2.72 2.44 2.72 2.44 7.44v1.64h-15.56q0.08 2.8 1.04 4.44 1 1.64 2.68 2.36 1.72 0.68 3.96 0.68 1.76 0 3.48-0.48t3.44-1.28v3.2q-1.84 0.8-3.68 1.16t-3.48 0.36zm4.52-13.32q-0.12-2.8-1.52-4.4-1.36-1.6-3.92-1.6-2.68 0-4.36 1.64-1.64 1.6-2.08 4.36z"/><path d="m222.66 326.28q-2.2 0-4.16-0.44-1.92-0.4-3.56-1.08v-3.2q1.6 0.92 3.68 1.36 2.12 0.48 3.92 0.48 3.64 0 5.08-1.72 1.44-1.68 1.44-4.64v-0.76q0-0.48 0-0.92 0.04-0.44 0.12-1.36h-0.16q-1.12 1.64-2.64 2.28-1.48 0.6-3.6 0.6-4.24 0-6.6-2.88-2.36-2.92-2.36-8.12 0-5.24 2.32-8.24 2.36-3 6.44-3 2.16 0 3.64 0.72 1.48 0.68 2.64 2.32h0.2l0.48-2.64h2.88v22q0 4.6-2.36 6.92t-7.4 2.32zm0.8-12.32q2.68 0 4.2-1.72 1.52-1.76 1.52-5.6v-0.84q0-4.4-1.56-6.32t-4.28-1.92q-3.04 0-4.44 2.16-1.4 2.12-1.4 6.04 0 4 1.44 6.12 1.48 2.08 4.52 2.08z"/><path d="m245.46 316.88q-3.16 0-5.12-1.56-1.92-1.56-1.92-4.72 0-3.48 2.48-5.2 2.52-1.72 7.24-1.84l4.6-0.12v-0.88q0-2.88-1.44-3.92-1.44-1.08-3.88-1.08-1.72 0-3.28 0.44t-2.96 1.24l-1.24-2.72q1.52-0.76 3.36-1.32 1.88-0.56 4.32-0.56 4.04 0 6.2 1.84 2.2 1.8 2.2 5.64v14.36h-2.88l-0.4-2.96h-0.16q-1.32 1.68-3.04 2.52t-4.08 0.84zm0.6-2.92q1.8 0 3.32-0.64 1.52-0.68 2.44-2 0.92-1.36 0.92-3.4v-1.92l-3.84 0.12q-3.84 0.12-5.48 1.24-1.6 1.12-1.6 3.12 0 1.84 1.16 2.68 1.16 0.8 3.08 0.8z"/><path d="m270.14 315.12q-2-0.04-3.84-0.36-1.8-0.36-3.08-0.96v-3.4q1.36 0.64 3.2 1.12 1.88 0.48 3.72 0.52v-8.68q-3.64-1.16-5.48-2.8t-1.84-4.68q0-3 1.96-4.8 2-1.8 5.36-2.04v-2.92h2.56v2.88q2 0.04 3.6 0.48 1.6 0.4 3.04 1l-1.08 2.96q-1.28-0.52-2.68-0.88-1.4-0.4-2.88-0.52v8.64q2.56 0.76 4.28 1.64 1.72 0.84 2.56 2.2 0.88 1.32 0.88 3.48 0 2.8-2.04 4.68-2 1.84-5.68 2.28v3.84h-2.56zm0-23q-2 0.16-2.96 1.2-0.92 1-0.92 2.56 0 1.52 0.84 2.44 0.84 0.88 3.04 1.48zm2.56 19.72q2.24-0.28 3.24-1.28 1.04-1.04 1.04-2.64 0-1.52-0.92-2.28-0.88-0.8-3.36-1.44z"/></g></svg>
